<svg width="27" height="26" viewBox="0 0 27 26" fill="none" xmlns="http://www.w3.org/2000/svg">
<path fill-rule="evenodd" clip-rule="evenodd" d="M1.9161 7.68631L1.06074 8.90764C0.406848 9.84103 0.633603 11.1278 1.56699 11.7818C5.51147 14.543 16.6226 22.3235 20.5408 25.0676C21.4647 25.7141 22.7367 25.5 23.3969 24.5866C23.8515 23.957 24.2903 23.3505 24.2903 23.3505C24.2998 23.3379 24.3082 23.3242 24.3156 23.3105C26.6675 20.2446 26.5462 15.9446 24.0161 13.0167C22.299 11.0286 20.3848 8.81169 18.959 7.16199C18.9421 7.13352 18.922 7.10609 18.8957 7.08183C18.8893 7.07445 18.882 7.06918 18.8735 7.06285C18.4295 6.54922 18.0361 6.09254 17.7134 5.72023C17.1365 5.05261 16.1767 4.86804 15.3921 5.2741H15.391C14.0009 6.00078 12.2617 5.94699 10.8896 4.98617C10.5089 4.71934 10.2526 4.53792 10.0934 4.3966C10.0596 4.36601 10.0237 4.32699 10.0026 4.30168C10.607 3.27653 10.3212 1.95808 9.34558 1.27588L8.81719 0.904628C8.39637 0.610373 7.87642 0.497513 7.37226 0.591383C6.86811 0.685253 6.42303 0.97845 6.13722 1.4035L1.9161 7.68631ZM2.28209 8.35605L1.62079 9.29893C1.1831 9.92331 1.33497 10.785 1.95935 11.2216C5.90382 13.9837 17.015 21.7633 20.9331 24.5065C21.5512 24.94 22.4013 24.7966 22.8432 24.1848L23.5308 23.2346L2.28209 8.35605ZM18.1984 7.32667C17.8187 6.88792 17.4791 6.49557 17.1964 6.16756H17.1954C16.8252 5.73937 16.2103 5.62018 15.7072 5.88069C14.0977 6.72127 12.0865 6.658 10.4971 5.5453C9.96973 5.17723 9.66283 4.95045 9.50779 4.77961C9.37173 4.63089 9.319 4.4959 9.30529 4.37143C9.29157 4.2396 9.32322 4.10461 9.41181 3.95588C9.83686 3.23869 9.63646 2.31478 8.95301 1.83595L8.42462 1.4647C8.15462 1.27592 7.82029 1.20314 7.49755 1.26431C7.17376 1.32443 6.88794 1.51217 6.70443 1.78532L2.66928 7.79057L23.9307 22.6797C25.9208 19.8868 25.7574 16.0784 23.4982 13.4628L22.395 12.1846L20.8162 14.1431C20.698 14.2897 20.4829 14.3129 20.3352 14.1948C20.1886 14.0756 20.1654 13.8605 20.2835 13.7139L21.9405 11.6593C21.4943 11.1415 21.0482 10.6257 20.6126 10.1216L18.9135 11.9683C18.7869 12.1076 18.5697 12.1171 18.4315 11.9894C18.2923 11.8608 18.2828 11.6456 18.4104 11.5053L20.1633 9.60163C19.6265 8.98043 19.1149 8.38663 18.6477 7.84663L16.667 9.96444C16.5383 10.1016 16.3221 10.1089 16.184 9.98026C16.0458 9.85054 16.0384 9.63538 16.1681 9.49721L18.1984 7.32667Z" stroke="white"/>
</svg>
