<svg width="34" height="34" viewBox="0 0 34 34" fill="none" xmlns="http://www.w3.org/2000/svg">
<path d="M13.541 15.1406V9.89819H17.3235C19.3911 9.89819 20.6003 10.8693 20.6003 12.5268C20.6003 14.2311 19.3168 15.1406 16.8518 15.1406H13.541ZM13.541 23.1349H17.5743C20.0903 23.1349 21.4205 22.1149 21.4205 20.2087C21.4205 18.3281 20.0393 17.3442 17.4128 17.3442H13.541V23.1349Z" fill="white"/>
<path d="M8.5 0C6.24566 0 4.08365 0.895537 2.48959 2.4896C0.895533 4.08367 0 6.24569 0 8.50004V25.5001C0 27.7545 0.895533 29.9165 2.48959 31.5105C4.08365 33.1046 6.24566 34.0001 8.5 34.0001H25.5C27.7543 34.0001 29.9163 33.1046 31.5104 31.5105C33.1045 29.9165 34 27.7545 34 25.5001V8.50004C34 6.24569 33.1045 4.08367 31.5104 2.4896C29.9163 0.895537 27.7543 0 25.5 0L8.5 0ZM10.7525 25.5001V7.53316H17.9754C21.3478 7.53316 23.3792 9.25229 23.3792 12.0169C23.3792 13.8954 21.998 15.5763 20.2279 15.8759V16.0884C22.6568 16.3371 24.2739 18.0668 24.2739 20.4086C24.2739 23.5706 21.9704 25.5001 18.1369 25.5001H10.7525Z" fill="white"/>
</svg>
