<svg width="29" height="40" viewBox="0 0 29 40" fill="none" xmlns="http://www.w3.org/2000/svg">
<path d="M10.2121 3.61497V5.3385H5.80489V0H10.2121V1.88886H7.69374V3.61497H10.2121ZM14.7426 1.88886H16.5033V0H12.0956C12.0956 0 12.0956 0.948107 12.0956 1.88886C12.6852 2.47853 12.9927 2.7608 13.8456 3.61364C13.347 3.61364 12.0956 3.61529 12.0956 3.61529V5.3385H16.5033V3.61497L14.7426 1.88886ZM20.9896 1.88886H22.7501V0H18.3426C18.3426 0 18.3426 0.948107 18.3426 1.88886C18.9321 2.47853 19.2397 2.7608 20.0925 3.61364C19.5942 3.61364 18.3426 3.61529 18.3426 3.61529V5.3385H22.7502V3.61497L20.9896 1.88886ZM28.5552 7.87566L25.8778 36.8767L14.2775 40L2.67696 36.8767L0 7.87566H28.5552ZM23.1604 13.7725H14.267H5.21647L5.64927 17.2746H14.267H14.7511L14.267 17.4761L5.96426 20.9342L6.23964 24.3573L14.267 24.3834L18.5694 24.3971L18.2938 28.9616L14.267 30.0954V30.0918L14.234 30.1008L10.3448 29.1191L10.1088 26.2858H10.096H6.48849H6.47581L6.94799 31.7556L14.267 33.9199V33.916L14.2802 33.9199L21.56 31.7949L22.5046 20.9343H14.267H14.2467L14.267 20.9255L22.8061 17.2747L23.1604 13.7725Z" fill="white"/>
</svg>
