<svg width="29" height="40" viewBox="0 0 29 40" fill="none" xmlns="http://www.w3.org/2000/svg">
<path d="M2.63657 0H4.43947V1.7813H6.08871V0H7.89177V5.39407H6.08887V3.58772H4.43963V5.39407H2.63672V0H2.63657ZM10.2626 1.78881H8.67549V0H13.6535V1.78881H12.0656V5.39407H10.2627V1.78881H10.2626ZM14.4435 0H16.3237L17.48 1.89535L18.6353 0H20.5158V5.39407H18.7202V2.72056L17.4799 4.63837H17.449L16.2078 2.72056V5.39407H14.4435V0ZM21.4132 0H23.2166V3.61121H25.7521V5.39407H21.4132V0ZM0 7.86109L2.57895 36.7875L14.1519 40L25.757 36.7828L28.3387 7.86101L0 7.86109ZM22.9592 14.7256L22.7977 16.5242L22.7267 17.3217H22.7151H14.1694H14.157H9.15064L9.47487 20.9544H14.157H14.1694H21.4477H22.4038L22.3172 21.9072L21.4835 31.2473L21.4301 31.8463L14.1694 33.8588V33.8594L14.1531 33.864L6.88582 31.8465L6.38868 26.2761H8.03017H9.9501L10.2027 29.1056L14.1537 30.1726L14.157 30.1716V30.1713L18.114 29.1036L18.5256 24.5023H14.1694H14.157H6.23024L5.3583 14.7256L5.27337 13.774H14.157H14.1694H23.0441L22.9592 14.7256Z" fill="white"/>
</svg>
