<svg width="40" height="40" viewBox="0 0 40 40" fill="none" xmlns="http://www.w3.org/2000/svg">
<path fill-rule="evenodd" clip-rule="evenodd" d="M30.656 36.8643C27.166 36.8643 24.91 35.2004 23.81 33.0244L26.87 31.252C27.676 32.568 28.722 33.5342 30.576 33.5342C32.132 33.5342 33.126 32.7556 33.126 31.6816C33.126 30.0656 30.97 29.4342 29.448 28.7822C26.736 27.6282 24.936 26.1782 24.936 23.1162C24.936 20.2982 27.084 18.1504 30.442 18.1504C32.83 18.1504 34.55 18.9822 35.784 21.1562L32.858 23.0361C32.214 21.8821 31.516 21.4258 30.442 21.4258C29.34 21.4258 28.642 22.1241 28.642 23.0361C28.642 24.1641 29.34 24.6204 30.952 25.3184C34.33 26.7664 36.886 27.9039 36.886 31.6279C36.886 35.0119 34.228 36.8643 30.656 36.8643ZM22 31.1982C22 35.0922 19.602 37.1504 16.272 37.1504C13.264 37.1504 11.462 36 10.576 34H10.546H10.532H10.524L13.582 31.8623C14.172 32.9083 14.704 33.6504 15.992 33.6504C17.228 33.6504 18 33.0245 18 31.1465V18H22V31.1982ZM0 40H40V0H0V40Z" fill="white"/>
</svg>
