<svg width="34" height="34" viewBox="0 0 34 34" fill="none" xmlns="http://www.w3.org/2000/svg">
<path d="M25.2325 31.8771C25.1061 31.944 25.1167 31.9653 25.2378 31.9036C25.2771 31.8877 25.3101 31.8654 25.3388 31.8388C25.3388 31.8165 25.3388 31.8165 25.2325 31.8771ZM25.4875 31.739C25.427 31.7889 25.427 31.7889 25.4992 31.756C25.5375 31.7336 25.5715 31.7124 25.5715 31.706C25.5715 31.6773 25.5545 31.6837 25.4875 31.739ZM25.6533 31.6391C25.5927 31.689 25.5927 31.689 25.6649 31.6561C25.7043 31.6338 25.7372 31.6104 25.7372 31.6051C25.7372 31.5785 25.7202 31.5838 25.6533 31.6391ZM25.8211 31.5403C25.7606 31.5902 25.7606 31.5902 25.8307 31.5562C25.87 31.5349 25.9029 31.5126 25.9029 31.5063C25.9029 31.4797 25.8859 31.485 25.8211 31.5403ZM26.0474 31.3904C25.9316 31.468 25.8913 31.5179 25.9975 31.4627C26.0687 31.4191 26.1898 31.3235 26.1686 31.3235C26.1229 31.3405 26.0846 31.3692 26.0464 31.3904H26.0474ZM15.8871 0.00780956C15.8095 0.0131222 15.5768 0.0343726 15.3728 0.0513729C10.5407 0.489132 6.01994 3.09018 3.15446 7.09695C1.57033 9.29318 0.541858 11.8443 0.154058 14.5229C0.0169995 15.4579 0 15.7342 0 17.0018C0 18.2683 0.0169995 18.5403 0.154058 19.4753C1.07947 25.8621 5.62258 31.2236 11.7806 33.2105C12.8888 33.5644 14.0501 33.8087 15.3728 33.9586C15.8871 34.0138 18.1108 34.0138 18.625 33.9586C20.9115 33.7036 22.842 33.1394 24.7523 32.165C25.0455 32.0163 25.1008 31.977 25.0615 31.944C24.1265 30.7104 23.2085 29.4758 22.2895 28.2305L19.5728 24.5616L16.1697 19.52C15.035 17.8327 13.896 16.1496 12.739 14.4794C12.7273 14.4794 12.7124 16.7202 12.706 19.453C12.6944 24.2397 12.6944 24.4341 12.6338 24.5446C12.5732 24.6774 12.4734 24.7879 12.3406 24.8496C12.2354 24.8995 12.1408 24.9101 11.6383 24.9101H11.0635L10.9137 24.8166C10.8202 24.7561 10.7426 24.6721 10.6927 24.5733L10.6204 24.4235L10.6257 17.7604L10.6374 11.0973L10.7426 10.9645C10.8095 10.8827 10.8924 10.8158 10.9859 10.7658C11.1251 10.6989 11.1803 10.6883 11.7551 10.6883C12.4298 10.6883 12.5414 10.7148 12.7188 10.9093C14.0957 12.9621 15.4685 15.0202 16.8189 17.0847C19.0277 20.4337 22.043 25.0036 23.5251 27.2455L26.2206 31.3246L26.3534 31.2364C27.6486 30.3726 28.8269 29.344 29.8436 28.171C31.9856 25.7187 33.3753 22.7022 33.8459 19.4828C33.983 18.5477 34 18.2704 34 17.0039C34 15.7363 33.983 15.4654 33.8459 14.5304C32.9205 8.14354 28.3774 2.78205 22.2194 0.794076C21.0677 0.429631 19.883 0.181001 18.6835 0.053498C18.3616 0.0205598 16.1644 -0.0187535 15.8881 0.00993461L15.8871 0.00780956ZM22.843 10.2898C23.0035 10.3663 23.1246 10.5108 23.1798 10.6766C23.2085 10.7658 23.2138 12.6136 23.2085 16.7755L23.1968 22.7511L22.1461 21.1361L21.0889 19.52V15.1817C21.0889 12.3692 21.1006 10.7924 21.1155 10.7148C21.1654 10.5374 21.2865 10.3886 21.448 10.2951C21.5798 10.2282 21.6308 10.2229 22.1567 10.2229C22.6486 10.2229 22.7325 10.2282 22.843 10.2898Z" fill="white"/>
</svg>
