<svg width="64" height="64" viewBox="0 0 53 52" fill="none" xmlns="http://www.w3.org/2000/svg">
<g clip-path="url(#clip0_296_101)">
<path d="M26.2504 29.8797C28.8135 29.8797 30.8914 27.8018 30.8914 25.2387C30.8914 22.6755 28.8135 20.5977 26.2504 20.5977C23.6872 20.5977 21.6094 22.6755 21.6094 25.2387C21.6094 27.8018 23.6872 29.8797 26.2504 29.8797Z" fill="white"/>
<path d="M26.2526 16.9109C32.2499 16.9109 37.9471 17.7564 42.2783 19.2475C47.0886 20.9035 50.0228 23.3518 50.0228 25.2383C50.0228 27.2477 46.8539 29.8565 41.7086 31.5613C37.6123 32.9184 32.1318 33.6582 26.2526 33.6582C20.0763 33.6582 14.5339 32.9329 10.4852 31.549C7.95051 30.6826 5.85728 29.5567 4.42253 28.328C3.13326 27.2239 2.48236 26.1277 2.48236 25.2383C2.48236 23.3455 5.30429 20.9311 10.0108 19.2902C14.3439 17.7796 20.1804 16.9109 26.2526 16.9109ZM26.2526 14.6902C19.9445 14.6902 13.8635 15.5953 9.27981 17.1933C3.77637 19.1121 0.261719 22.1191 0.261719 25.2383C0.261719 28.4598 4.03476 31.691 9.76697 33.6502C14.0757 35.123 19.8511 35.8788 26.2526 35.8788C32.3534 35.8788 38.0645 35.108 42.407 33.6692C48.3662 31.6948 52.2434 28.5029 52.2434 25.2383C52.2434 22.1078 48.6154 19.0805 43.0011 17.1478C38.4229 15.5717 32.4838 14.6902 26.2526 14.6902ZM18.9987 21.1013C21.9948 15.906 25.5734 11.3932 29.0288 8.38601C32.8664 5.04629 36.4532 3.72759 38.0874 4.66998C39.8282 5.67381 40.505 9.72225 39.4113 15.0311C38.5406 19.2576 36.4435 24.3748 33.5064 29.4678C30.421 34.8181 27.0239 39.2569 23.8023 42.0729C21.7855 43.8358 19.7645 45.0866 17.9833 45.7157C16.3828 46.2809 15.108 46.2971 14.3375 45.8528C12.6978 44.9072 12.0162 41.2566 12.946 36.3596C13.8019 31.8515 15.9651 26.3616 18.9987 21.1013ZM17.075 19.9919C13.9236 25.4566 11.6698 31.1765 10.7643 35.9454C9.67708 41.6714 10.5261 46.2182 13.2281 47.7765C16.019 49.3859 20.7029 47.7316 25.2638 43.7448C28.6922 40.748 32.2321 36.1226 35.4301 30.5771C38.4779 25.2921 40.6632 19.9596 41.5863 15.4791C42.853 9.33057 42.0248 4.37713 39.1967 2.74628C36.4849 1.18246 32.05 2.81298 27.571 6.71088C23.9185 9.8895 20.1879 14.5941 17.075 19.9919ZM19.0056 29.4799C16.0009 24.2896 13.8783 18.9354 12.9987 14.4399C12.0218 9.44724 12.6707 5.68116 14.3033 4.73604C16.0424 3.72924 19.8878 5.1647 23.9409 8.76353C27.1678 11.6286 30.5538 16.001 33.4994 21.0892C36.5938 26.4343 38.7429 31.5943 39.5738 35.7917C40.0939 38.4194 40.1682 40.795 39.8237 42.6523C39.5141 44.3212 38.8915 45.4337 38.1217 45.8794C36.4835 46.8277 32.9803 45.5951 29.2022 42.344C25.724 39.351 22.048 34.7351 19.0056 29.4799ZM17.0838 30.5924C20.2444 36.0518 24.0744 40.861 27.7537 44.0272C32.1715 47.8288 36.5348 49.364 39.2343 47.8012C42.0224 46.1871 42.9285 41.303 41.7521 35.3605C40.868 30.8936 38.6285 25.5167 35.4212 19.9766C32.3646 14.6966 28.8361 10.1403 25.4153 7.10299C20.7211 2.93491 16.016 1.17855 13.1907 2.81421C10.4815 4.38257 9.67925 9.03919 10.8194 14.8663C11.7491 19.6181 13.9619 25.1998 17.0838 30.5924Z" fill="white"/>
</g>
<defs>
<clipPath id="clip0_296_101">
<rect width="52" height="52" fill="white" transform="translate(0.253906 -0.00732422)"/>
</clipPath>
</defs>
</svg>
