<svg width="40" height="24" viewBox="0 0 40 24" fill="none" xmlns="http://www.w3.org/2000/svg">
<path d="M20 0C14.6667 0 11.3333 2.66667 10 8C12 5.33333 14.3333 4.33333 17 5C18.5217 5.38 19.6083 6.48333 20.8133 7.70667C22.775 9.69667 25.0433 12 30 12C35.3333 12 38.6667 9.33333 40 4C38 6.66667 35.6667 7.66667 33 7C31.4783 6.62 30.3917 5.51667 29.1867 4.29333C27.2267 2.30333 24.9583 0 20 0ZM10 12C4.66667 12 1.33333 14.6667 0 20C2 17.3333 4.33333 16.3333 7 17C8.52167 17.38 9.60833 18.4833 10.8133 19.7067C12.775 21.6967 15.0433 24 20 24C25.3333 24 28.6667 21.3333 30 16C28 18.6667 25.6667 19.6667 23 19C21.4783 18.62 20.3917 17.5167 19.1867 16.2933C17.2267 14.3033 14.9583 12 10 12Z" fill="white"/>
</svg>
