<svg width="80" height="80" viewBox="0 0 80 80" fill="none" xmlns="http://www.w3.org/2000/svg">
<g clip-path="url(#clip0_248_388)">
<path fill-rule="evenodd" clip-rule="evenodd" d="M61.3042 73.7285C54.3242 73.7285 49.8122 70.4008 47.6122 66.0488L53.7322 62.5039C55.3442 65.1359 57.4362 67.0684 61.1442 67.0684C64.2562 67.0684 66.2441 65.5113 66.2441 63.3633C66.2441 60.1313 61.9322 58.8685 58.8882 57.5645C53.4642 55.2565 49.8641 52.3564 49.8641 46.2324C49.8641 40.5964 54.1602 36.3008 60.8762 36.3008C65.6522 36.3008 69.0922 37.9645 71.5602 42.3125L65.7081 46.0723C64.4201 43.7643 63.0242 42.8516 60.8762 42.8516C58.6722 42.8516 57.2762 44.2483 57.2762 46.0723C57.2762 48.3283 58.6722 49.2407 61.8962 50.6367C68.6522 53.5327 73.7642 55.8079 73.7642 63.2559C73.7642 70.0239 68.4482 73.7285 61.3042 73.7285ZM43.9922 62.3965C43.9922 70.1845 39.1961 74.3008 32.5361 74.3008C26.5201 74.3008 22.9162 72 21.1442 68H21.0842H21.0562H21.0402L27.1561 63.7246C28.3361 65.8166 29.4002 67.3008 31.9762 67.3008C34.4482 67.3008 35.9922 66.049 35.9922 62.293V36H43.9922V62.3965ZM-0.0078125 80H79.9922V0H-0.0078125V80Z" fill="white"/>
</g>
<defs>
<clipPath id="clip0_248_388">
<rect width="80" height="80" fill="white"/>
</clipPath>
</defs>
</svg>
