<svg width="80" height="80" viewBox="0 0 80 80" fill="none" xmlns="http://www.w3.org/2000/svg">
<g clip-path="url(#clip0_248_387)">
<path fill-rule="evenodd" clip-rule="evenodd" d="M0 40C0 17.9086 17.9086 0 40 0C62.0912 0 80 17.9086 80 40C80 53.7973 73.0144 65.9632 62.3867 73.1536L26.17 22.4502C25.4962 21.5069 24.2901 21.107 23.1862 21.4607C22.0822 21.8145 21.3333 22.841 21.3333 24.0002V64H26.6667V32.3214L57.7595 75.8512C52.4086 78.5072 46.3787 80 40 80C17.9086 80 0 62.0912 0 40ZM53.3333 53.3333V21.3333H58.6667V53.3333H53.3333Z" fill="white"/>
</g>
<defs>
<clipPath id="clip0_248_387">
<rect width="80" height="80" fill="white"/>
</clipPath>
</defs>
</svg>
