<svg width="49" height="48" viewBox="0 0 49 48" fill="none" xmlns="http://www.w3.org/2000/svg">
<g clip-path="url(#clip0_296_101)">
<path d="M24.2528 27.5817C26.6187 27.5817 28.5367 25.6637 28.5367 23.2977C28.5367 20.9317 26.6187 19.0137 24.2528 19.0137C21.8868 19.0137 19.9688 20.9317 19.9688 23.2977C19.9688 25.6637 21.8868 27.5817 24.2528 27.5817Z" fill="white"/>
<path d="M24.2533 15.61C29.7893 15.61 35.0482 16.3905 39.0462 17.7669C43.4865 19.2955 46.195 21.5555 46.195 23.2968C46.195 25.1517 43.2699 27.5598 38.5204 29.1334C34.7392 30.3862 29.6802 31.0691 24.2533 31.0691C18.5521 31.0691 13.4361 30.3995 9.69878 29.1221C7.35906 28.3224 5.42685 27.283 4.10247 26.1489C2.91238 25.1297 2.31154 24.1178 2.31154 23.2968C2.31154 21.5496 4.9164 19.321 9.26091 17.8063C13.2606 16.4119 18.6482 15.61 24.2533 15.61ZM24.2533 13.5602C18.4305 13.5602 12.8172 14.3957 8.58611 15.8707C3.50601 17.6419 0.261719 20.4176 0.261719 23.2968C0.261719 26.2706 3.74452 29.2532 9.0358 31.0617C13.0131 32.4212 18.3442 33.1189 24.2533 33.1189C29.8848 33.1189 35.1566 32.4073 39.1651 31.0792C44.6658 29.2567 48.2448 26.3103 48.2448 23.2968C48.2448 20.4072 44.8959 17.6128 39.7135 15.8287C35.4875 14.3738 30.0052 13.5602 24.2533 13.5602ZM17.5574 19.4781C20.323 14.6825 23.6263 10.5167 26.816 7.7409C30.3584 4.65808 33.6693 3.44081 35.1777 4.31071C36.7846 5.23732 37.4094 8.97435 36.3998 13.8748C35.5961 17.7762 33.6603 22.4998 30.9492 27.201C28.101 32.1397 24.9652 36.2371 21.9915 38.8364C20.1299 40.4638 18.2643 41.6184 16.6201 42.199C15.1427 42.7208 13.966 42.7358 13.2547 42.3256C11.7412 41.4528 11.112 38.0829 11.9702 33.5627C12.7604 29.4014 14.7572 24.3337 17.5574 19.4781ZM15.7817 18.454C12.8727 23.4983 10.7922 28.7783 9.95641 33.1803C8.95282 38.4659 9.73653 42.6629 12.2307 44.1013C14.8069 45.5869 19.1305 44.0599 23.3406 40.3798C26.5052 37.6135 29.7729 33.3439 32.7249 28.225C35.5382 23.3465 37.5554 18.4243 38.4075 14.2884C39.5767 8.61279 38.8123 4.04039 36.2017 2.53499C33.6985 1.09146 29.6048 2.59656 25.4703 6.19462C22.0988 9.12873 18.6551 13.4714 15.7817 18.454ZM17.5638 27.2121C14.7902 22.4211 12.8309 17.4788 12.019 13.3291C11.1172 8.72049 11.7161 5.24411 13.2232 4.37169C14.8285 3.44233 18.3781 4.76737 22.1194 8.08937C25.0981 10.7341 28.2236 14.7701 30.9427 19.4669C33.7991 24.4009 35.7828 29.1639 36.5498 33.0384C37.0299 35.464 37.0985 37.6569 36.7804 39.3713C36.4947 40.9119 35.92 41.9388 35.2094 42.3501C33.6973 43.2255 30.4635 42.0878 26.976 39.0867C23.7654 36.3239 20.3722 32.0631 17.5638 27.2121ZM15.7898 28.2391C18.7073 33.2785 22.2426 37.7178 25.6389 40.6404C29.7169 44.1496 33.7445 45.5667 36.2364 44.1241C38.81 42.6342 39.6464 38.1258 38.5606 32.6404C37.7444 28.5171 35.6772 23.5538 32.7167 18.4399C29.8951 13.5661 26.6381 9.36022 23.4804 6.55657C19.1473 2.70911 14.8042 1.08786 12.1962 2.5977C9.69536 4.04541 8.95483 8.34383 10.0073 13.7227C10.8655 18.109 12.908 23.2613 15.7898 28.2391Z" fill="white"/>
</g>
<defs>
<clipPath id="clip0_296_101">
<rect width="48" height="48" fill="white" transform="translate(0.253906 -0.00732422)"/>
</clipPath>
</defs>
</svg>
