<svg width="398" height="398" viewBox="0 0 398 398" fill="none" xmlns="http://www.w3.org/2000/svg">
<g clip-path="url(#clip0_751_105)">
<rect x="0.408203" width="397.592" height="397.592" rx="55" fill="#F0771F"/>
<path fill-rule="evenodd" clip-rule="evenodd" d="M636.495 233.625L600.054 203.015C563.613 172.404 490.731 111.183 417.85 84.946C344.968 58.7085 272.086 67.4543 199.204 84.946C126.322 102.438 53.4403 128.675 -19.4415 133.048C-92.3234 137.421 -165.205 119.929 -201.646 111.183L-238.087 102.438V259.862H-201.646C-165.205 259.862 -92.3234 259.862 -19.4415 259.862C53.4403 259.862 126.322 259.862 199.204 259.862C272.086 259.862 344.968 259.862 417.85 259.862C490.731 259.862 563.613 259.862 600.054 259.862H636.495V233.625Z" fill="#FFA631"/>
<path fill-rule="evenodd" clip-rule="evenodd" d="M-303.225 156.743L-261.356 181.865C-219.486 206.986 -135.748 257.229 -52.01 247.181C31.7282 237.132 115.466 166.792 199.205 156.743C282.943 146.695 366.681 196.938 450.419 212.011C534.157 227.084 617.896 206.986 659.765 196.938L701.634 186.889V337.618H659.765C617.896 337.618 534.157 337.618 450.419 337.618C366.681 337.618 282.943 337.618 199.205 337.618C115.466 337.618 31.7282 337.618 -52.01 337.618C-135.748 337.618 -219.486 337.618 -261.356 337.618H-303.225V156.743Z" fill="#01A7E1"/>
<path fill-rule="evenodd" clip-rule="evenodd" d="M-86.1035 288.596L-60.025 301.113C-33.9465 313.631 18.2106 338.667 70.3677 329.278C122.525 319.89 174.682 276.078 226.839 257.302C278.996 238.525 331.153 244.784 383.31 266.69C435.467 288.596 487.624 326.149 513.703 344.925L539.781 363.702V401.255H513.703C487.624 401.255 435.467 401.255 383.31 401.255C331.153 401.255 278.996 401.255 226.839 401.255C174.682 401.255 122.525 401.255 70.3677 401.255C18.2106 401.255 -33.9465 401.255 -60.025 401.255H-86.1035V288.596Z" fill="#0474BA"/>
</g>
<defs>
<clipPath id="clip0_751_105">
<rect x="0.408203" width="397.592" height="397.592" rx="55" fill="white"/>
</clipPath>
</defs>
</svg>
