<svg width="80" height="80" viewBox="0 0 80 80" fill="none" xmlns="http://www.w3.org/2000/svg">
<path d="M75.4878 0.0782471L68.8331 72.1586L40.0013 79.9217L11.1689 72.1586L4.51562 0.0782471H75.4878ZM62.0783 14.7347H39.9753H17.4808L18.5566 23.439H39.9753H41.1784L39.9753 23.9398L19.3394 32.5345L20.0238 41.0428L39.9753 41.1075L50.6688 41.1414L49.9842 52.4861L39.9752 55.304V55.2951L39.8931 55.3179L30.2269 52.8778L29.6403 45.8356H29.6083H20.6423H20.6108L21.7844 59.4304L39.9755 64.81V64.8003L40.0083 64.81L58.1019 59.5284L60.4489 32.5345H39.9755H39.925L39.9755 32.5126L61.1989 23.439L62.0783 14.7347Z" fill="white"/>
</svg>
