<svg width="53" height="52" viewBox="0 0 53 52" fill="none" xmlns="http://www.w3.org/2000/svg">
<path fill-rule="evenodd" clip-rule="evenodd" d="M26.7487 13.0703C20.9702 13.0703 17.3605 15.9411 15.9154 21.685C18.082 18.8141 20.6105 17.7373 23.4987 18.4545C25.1475 18.864 26.3262 20.0535 27.6284 21.3686C29.7539 23.5115 32.213 25.9923 37.582 25.9923C43.3605 25.9923 46.9702 23.1215 48.4154 17.3776C46.2487 20.2485 43.7224 21.3253 40.832 20.6081C39.1832 20.1986 38.0045 19.0091 36.7002 17.694C34.5769 15.549 32.1199 13.0703 26.7487 13.0703ZM15.9154 25.9923C10.1369 25.9923 6.5272 28.8631 5.08203 34.607C7.2487 31.734 9.7772 30.6593 12.6654 31.3765C14.3142 31.786 15.4929 32.9755 16.7972 34.2906C18.9205 36.4335 21.3797 38.9143 26.7509 38.9143C32.5294 38.9143 36.139 36.0435 37.5842 30.2996C35.4175 33.1705 32.889 34.2473 30.0009 33.5301C28.352 33.1206 27.1734 31.9311 25.8712 30.616C23.7435 28.4731 21.2844 25.9923 15.9154 25.9923Z" fill="white"/>
</svg>
