<svg width="40" height="22" viewBox="0 0 40 22" fill="none" xmlns="http://www.w3.org/2000/svg">
<path d="M31.3545 8.01592C31.6452 8.33804 31.7142 8.89115 31.5622 9.67464C31.4034 10.4907 31.0976 11.0728 30.6445 11.4218C30.1911 11.7708 29.5015 11.9453 28.5755 11.9453H27.1783L28.036 7.53271H29.6096C30.4824 7.53271 31.0638 7.69389 31.3545 8.01592ZM11.6833 7.53271H10.1097L9.2519 11.9453H10.649C11.5748 11.9453 12.2646 11.7708 12.718 11.4218C13.1712 11.0728 13.4769 10.4906 13.6357 9.67464C13.7877 8.89107 13.7187 8.33804 13.428 8.01592C13.1374 7.69389 12.556 7.53271 11.6833 7.53271ZM40 10.5208C40 16.3313 31.0456 21.0417 20 21.0417C8.95444 21.0417 0 16.3313 0 10.5208C0 4.71039 8.95444 0 20 0C31.0456 0 40 4.71039 40 10.5208ZM15.5023 11.2477C15.7403 10.8213 15.9096 10.3506 16.0098 9.83581C16.2526 8.58594 16.0694 7.61248 15.46 6.91502C14.8509 6.21756 13.8815 5.86899 12.553 5.86899H8.13636L6.08728 16.4121H8.38411L8.92877 13.6094H10.8962C11.7641 13.6094 12.4782 13.5183 13.0388 13.3356C13.5994 13.1533 14.1088 12.8477 14.5674 12.4183C14.9522 12.0645 15.2636 11.6745 15.5023 11.2477ZM23.5862 13.6094L24.5397 8.70274C24.7338 7.70492 24.5882 6.98289 24.1036 6.53725C23.6186 6.092 22.7377 5.86899 21.4603 5.86899H19.4303L19.9752 3.06584H17.6965L15.647 13.6093H17.9257L19.0996 7.56895H20.9209C21.5039 7.56895 21.885 7.66539 22.064 7.85843C22.2431 8.05154 22.2811 8.4135 22.1779 8.94407L21.2714 13.6093H23.5862V13.6094ZM33.3864 6.9151C32.7774 6.21764 31.808 5.86907 30.4795 5.86907H26.0628L24.0136 16.4122H26.3105L26.8551 13.6094H28.8226C29.6904 13.6094 30.4046 13.5183 30.9652 13.3357C31.5257 13.1534 32.0351 12.8478 32.4938 12.4184C32.8789 12.0645 33.1901 11.6746 33.4286 11.2478C33.6669 10.8213 33.8359 10.3506 33.9361 9.83589C34.179 8.58595 33.9958 7.61248 33.3864 6.9151Z" fill="white"/>
</svg>
