<svg width="54" height="51" viewBox="0 0 54 51" fill="none" xmlns="http://www.w3.org/2000/svg">
<path d="M51.5108 48.8534C51.9444 48.8534 52.3546 48.6581 52.6277 48.321C52.9008 47.9842 53.0072 47.5423 52.9176 47.1181L52.0121 42.833C52.5278 42.3341 52.852 41.6376 52.852 40.8631C52.852 40.0478 52.4889 39.3247 51.9253 38.8223V23.9414L48.2954 26.1877V38.8223C47.7318 39.3247 47.3685 40.0478 47.3685 40.8631C47.3685 41.6377 47.6928 42.3342 48.2085 42.833L47.3029 47.1181C47.2133 47.5423 47.3199 47.9842 47.5929 48.321C47.8659 48.6579 48.2762 48.8534 48.7098 48.8534H51.5108ZM52.7411 15.2578L29.1265 0.639851C28.4349 0.213851 27.6553 0 26.8757 0C26.096 0 25.3159 0.213672 24.6285 0.639851L1.01354 15.2578C0.382975 15.6479 0 16.3371 0 17.0787C0 17.8205 0.382975 18.5099 1.01354 18.9007L24.6284 33.5188C25.3158 33.9452 26.0959 34.1586 26.8756 34.1586C27.6552 34.1586 28.4349 33.9449 29.1264 33.5188L52.7411 18.9007C53.3717 18.5101 53.7547 17.8205 53.7547 17.0787C53.7547 16.3371 53.3717 15.6477 52.7411 15.2578ZM26.8756 37.7882C25.4046 37.7882 23.9689 37.3797 22.7175 36.6052L8.94282 28.0776V42.7612C8.94282 47.1071 16.9754 50.625 26.8756 50.625C36.7793 50.625 44.8112 47.107 44.8112 42.7612V28.0776L31.0371 36.6052C29.7857 37.3797 28.3466 37.7882 26.8756 37.7882Z" fill="#00FF99"/>
</svg>
