<svg id="r3c" width="100%" xmlns="http://www.w3.org/2000/svg" style="max-width: 645.6231079101562px;" viewBox="0 0 645.6231079101562 581" role="graphics-document document" aria-roledescription="er"><style>#r3c{margin:1.5rem auto 0;}#r3c{font-family:inherit;font-size:16px;fill:#333;}#r3c .error-icon{fill:#552222;}#r3c .error-text{fill:#552222;stroke:#552222;}#r3c .edge-thickness-normal{stroke-width:2px;}#r3c .edge-thickness-thick{stroke-width:3.5px;}#r3c .edge-pattern-solid{stroke-dasharray:0;}#r3c .edge-pattern-dashed{stroke-dasharray:3;}#r3c .edge-pattern-dotted{stroke-dasharray:2;}#r3c .marker{fill:#333333;stroke:#333333;}#r3c .marker.cross{stroke:#333333;}#r3c svg{font-family:inherit;font-size:16px;}#r3c .entityBox{fill:#ECECFF;stroke:#9370DB;}#r3c .attributeBoxOdd{fill:#ffffff;stroke:#9370DB;}#r3c .attributeBoxEven{fill:#f2f2f2;stroke:#9370DB;}#r3c .relationshipLabelBox{fill:hsl(80, 100%, 96.2745098039%);opacity:0.7;background-color:hsl(80, 100%, 96.2745098039%);}#r3c .relationshipLabelBox rect{opacity:0.5;}#r3c .relationshipLine{stroke:#333333;}#r3c .entityTitleText{text-anchor:middle;font-size:18px;fill:#333;}#r3c #MD_PARENT_START{fill:#f5f5f5!important;stroke:#333333!important;stroke-width:1;}#r3c #MD_PARENT_END{fill:#f5f5f5!important;stroke:#333333!important;stroke-width:1;}#r3c :root{--mermaid-font-family:inherit;}</style><g></g><defs><marker id="MD_PARENT_START" refX="0" refY="7" markerWidth="190" markerHeight="240" orient="auto"><path d="M 18,7 L9,13 L1,7 L9,1 Z"></path></marker></defs><defs><marker id="MD_PARENT_END" refX="19" refY="7" markerWidth="20" markerHeight="28" orient="auto"><path d="M 18,7 L9,13 L1,7 L9,1 Z"></path></marker></defs><defs><marker id="ONLY_ONE_START" refX="0" refY="9" markerWidth="18" markerHeight="18" orient="auto"><path stroke="gray" fill="none" d="M9,0 L9,18 M15,0 L15,18"></path></marker></defs><defs><marker id="ONLY_ONE_END" refX="18" refY="9" markerWidth="18" markerHeight="18" orient="auto"><path stroke="gray" fill="none" d="M3,0 L3,18 M9,0 L9,18"></path></marker></defs><defs><marker id="ZERO_OR_ONE_START" refX="0" refY="9" markerWidth="30" markerHeight="18" orient="auto"><circle stroke="gray" fill="white" cx="21" cy="9" r="6"></circle><path stroke="gray" fill="none" d="M9,0 L9,18"></path></marker></defs><defs><marker id="ZERO_OR_ONE_END" refX="30" refY="9" markerWidth="30" markerHeight="18" orient="auto"><circle stroke="gray" fill="white" cx="9" cy="9" r="6"></circle><path stroke="gray" fill="none" d="M21,0 L21,18"></path></marker></defs><defs><marker id="ONE_OR_MORE_START" refX="18" refY="18" markerWidth="45" markerHeight="36" orient="auto"><path stroke="gray" fill="none" d="M0,18 Q 18,0 36,18 Q 18,36 0,18 M42,9 L42,27"></path></marker></defs><defs><marker id="ONE_OR_MORE_END" refX="27" refY="18" markerWidth="45" markerHeight="36" orient="auto"><path stroke="gray" fill="none" d="M3,9 L3,27 M9,18 Q27,0 45,18 Q27,36 9,18"></path></marker></defs><defs><marker id="ZERO_OR_MORE_START" refX="18" refY="18" markerWidth="57" markerHeight="36" orient="auto"><circle stroke="gray" fill="white" cx="48" cy="18" r="6"></circle><path stroke="gray" fill="none" d="M0,18 Q18,0 36,18 Q18,36 0,18"></path></marker></defs><defs><marker id="ZERO_OR_MORE_END" refX="39" refY="18" markerWidth="57" markerHeight="36" orient="auto"><circle stroke="gray" fill="white" cx="9" cy="18" r="6"></circle><path stroke="gray" fill="none" d="M21,18 Q39,0 57,18 Q39,36 21,18"></path></marker></defs><path class="er relationshipLine" d="M259,124.549L230.73,138.79C202.461,153.032,145.922,181.516,117.652,204.091C89.383,226.667,89.383,243.333,89.383,251.667L89.383,260" marker-end="url(#ONE_OR_MORE_END)" marker-start="url(#ONLY_ONE_START)" style="stroke: gray; fill: none;"></path><path class="er relationshipLine" d="M327.577,160L327.577,168.333C327.577,176.667,327.577,193.333,327.577,225.333C327.577,257.333,327.577,304.667,327.577,328.333L327.577,352" marker-end="url(#ONE_OR_MORE_END)" marker-start="url(#ONLY_ONE_START)" style="stroke: gray; fill: none;"></path><path class="er relationshipLine" d="M396.154,125.254L423.63,139.378C451.105,153.503,506.055,181.751,533.531,221.459C561.006,261.167,561.006,312.333,561.006,337.917L561.006,363.5" marker-end="url(#ONE_OR_MORE_END)" marker-start="url(#ONLY_ONE_START)" style="stroke: gray; fill: none;"></path><g id="entity-User-818c511a-4a32-5484-ba70-875d765a9175" transform="translate(259,20 )"><rect class="er entityBox" x="0" y="0" width="137.1543426513672" height="140"></rect><text class="er entityLabel" id="text-entity-User-818c511a-4a32-5484-ba70-875d765a9175" x="0" y="0" transform="translate(68.5771713256836,12.5)" style="dominant-baseline: middle; text-anchor: middle; font-family: inherit; font-size: 12px;">User</text><rect class="er attributeBoxOdd" x="0" y="25" width="63.57621765136719" height="23"></rect><text class="er entityLabel" id="text-entity-User-818c511a-4a32-5484-ba70-875d765a9175-attr-1-type" x="0" y="0" transform="translate(5,36.5)" style="dominant-baseline: middle; font-family: inherit; font-size: 10.2px;">string</text><rect class="er attributeBoxOdd" x="63.57621765136719" y="25" width="73.578125" height="23"></rect><text class="er entityLabel" id="text-entity-User-818c511a-4a32-5484-ba70-875d765a9175-attr-1-name" x="0" y="0" transform="translate(68.57621765136719,36.5)" style="dominant-baseline: middle; font-family: inherit; font-size: 10.2px;">id</text><rect class="er attributeBoxEven" x="0" y="48" width="63.57621765136719" height="23"></rect><text class="er entityLabel" id="text-entity-User-818c511a-4a32-5484-ba70-875d765a9175-attr-2-type" x="0" y="0" transform="translate(5,59.5)" style="dominant-baseline: middle; font-family: inherit; font-size: 10.2px;">string</text><rect class="er attributeBoxEven" x="63.57621765136719" y="48" width="73.578125" height="23"></rect><text class="er entityLabel" id="text-entity-User-818c511a-4a32-5484-ba70-875d765a9175-attr-2-name" x="0" y="0" transform="translate(68.57621765136719,59.5)" style="dominant-baseline: middle; font-family: inherit; font-size: 10.2px;">name</text><rect class="er attributeBoxOdd" x="0" y="71" width="63.57621765136719" height="23"></rect><text class="er entityLabel" id="text-entity-User-818c511a-4a32-5484-ba70-875d765a9175-attr-3-type" x="0" y="0" transform="translate(5,82.5)" style="dominant-baseline: middle; font-family: inherit; font-size: 10.2px;">string</text><rect class="er attributeBoxOdd" x="63.57621765136719" y="71" width="73.578125" height="23"></rect><text class="er entityLabel" id="text-entity-User-818c511a-4a32-5484-ba70-875d765a9175-attr-3-name" x="0" y="0" transform="translate(68.57621765136719,82.5)" style="dominant-baseline: middle; font-family: inherit; font-size: 10.2px;">email</text><rect class="er attributeBoxEven" x="0" y="94" width="63.57621765136719" height="23"></rect><text class="er entityLabel" id="text-entity-User-818c511a-4a32-5484-ba70-875d765a9175-attr-4-type" x="0" y="0" transform="translate(5,105.5)" style="dominant-baseline: middle; font-family: inherit; font-size: 10.2px;">timestamp</text><rect class="er attributeBoxEven" x="63.57621765136719" y="94" width="73.578125" height="23"></rect><text class="er entityLabel" id="text-entity-User-818c511a-4a32-5484-ba70-875d765a9175-attr-4-name" x="0" y="0" transform="translate(68.57621765136719,105.5)" style="dominant-baseline: middle; font-family: inherit; font-size: 10.2px;">emailVerified</text><rect class="er attributeBoxOdd" x="0" y="117" width="63.57621765136719" height="23"></rect><text class="er entityLabel" id="text-entity-User-818c511a-4a32-5484-ba70-875d765a9175-attr-5-type" x="0" y="0" transform="translate(5,128.5)" style="dominant-baseline: middle; font-family: inherit; font-size: 10.2px;">string</text><rect class="er attributeBoxOdd" x="63.57621765136719" y="117" width="73.578125" height="23"></rect><text class="er entityLabel" id="text-entity-User-818c511a-4a32-5484-ba70-875d765a9175-attr-5-name" x="0" y="0" transform="translate(68.57621765136719,128.5)" style="dominant-baseline: middle; font-family: inherit; font-size: 10.2px;">image</text></g><g id="entity-Account-3e57c4b6-cd9d-514f-a2f6-ac5478bb332e" transform="translate(20,260 )"><rect class="er entityBox" x="0" y="0" width="138.765625" height="301"></rect><text class="er entityLabel" id="text-entity-Account-3e57c4b6-cd9d-514f-a2f6-ac5478bb332e" x="0" y="0" transform="translate(69.3828125,12.5)" style="dominant-baseline: middle; text-anchor: middle; font-family: inherit; font-size: 12px;">Account</text><rect class="er attributeBoxOdd" x="0" y="25" width="37.953125" height="23"></rect><text class="er entityLabel" id="text-entity-Account-3e57c4b6-cd9d-514f-a2f6-ac5478bb332e-attr-1-type" x="0" y="0" transform="translate(5,36.5)" style="dominant-baseline: middle; font-family: inherit; font-size: 10.2px;">string</text><rect class="er attributeBoxOdd" x="37.953125" y="25" width="100.8125" height="23"></rect><text class="er entityLabel" id="text-entity-Account-3e57c4b6-cd9d-514f-a2f6-ac5478bb332e-attr-1-name" x="0" y="0" transform="translate(42.953125,36.5)" style="dominant-baseline: middle; font-family: inherit; font-size: 10.2px;">id</text><rect class="er attributeBoxEven" x="0" y="48" width="37.953125" height="23"></rect><text class="er entityLabel" id="text-entity-Account-3e57c4b6-cd9d-514f-a2f6-ac5478bb332e-attr-2-type" x="0" y="0" transform="translate(5,59.5)" style="dominant-baseline: middle; font-family: inherit; font-size: 10.2px;">string</text><rect class="er attributeBoxEven" x="37.953125" y="48" width="100.8125" height="23"></rect><text class="er entityLabel" id="text-entity-Account-3e57c4b6-cd9d-514f-a2f6-ac5478bb332e-attr-2-name" x="0" y="0" transform="translate(42.953125,59.5)" style="dominant-baseline: middle; font-family: inherit; font-size: 10.2px;">userId</text><rect class="er attributeBoxOdd" x="0" y="71" width="37.953125" height="23"></rect><text class="er entityLabel" id="text-entity-Account-3e57c4b6-cd9d-514f-a2f6-ac5478bb332e-attr-3-type" x="0" y="0" transform="translate(5,82.5)" style="dominant-baseline: middle; font-family: inherit; font-size: 10.2px;">string</text><rect class="er attributeBoxOdd" x="37.953125" y="71" width="100.8125" height="23"></rect><text class="er entityLabel" id="text-entity-Account-3e57c4b6-cd9d-514f-a2f6-ac5478bb332e-attr-3-name" x="0" y="0" transform="translate(42.953125,82.5)" style="dominant-baseline: middle; font-family: inherit; font-size: 10.2px;">type</text><rect class="er attributeBoxEven" x="0" y="94" width="37.953125" height="23"></rect><text class="er entityLabel" id="text-entity-Account-3e57c4b6-cd9d-514f-a2f6-ac5478bb332e-attr-4-type" x="0" y="0" transform="translate(5,105.5)" style="dominant-baseline: middle; font-family: inherit; font-size: 10.2px;">string</text><rect class="er attributeBoxEven" x="37.953125" y="94" width="100.8125" height="23"></rect><text class="er entityLabel" id="text-entity-Account-3e57c4b6-cd9d-514f-a2f6-ac5478bb332e-attr-4-name" x="0" y="0" transform="translate(42.953125,105.5)" style="dominant-baseline: middle; font-family: inherit; font-size: 10.2px;">provider</text><rect class="er attributeBoxOdd" x="0" y="117" width="37.953125" height="23"></rect><text class="er entityLabel" id="text-entity-Account-3e57c4b6-cd9d-514f-a2f6-ac5478bb332e-attr-5-type" x="0" y="0" transform="translate(5,128.5)" style="dominant-baseline: middle; font-family: inherit; font-size: 10.2px;">string</text><rect class="er attributeBoxOdd" x="37.953125" y="117" width="100.8125" height="23"></rect><text class="er entityLabel" id="text-entity-Account-3e57c4b6-cd9d-514f-a2f6-ac5478bb332e-attr-5-name" x="0" y="0" transform="translate(42.953125,128.5)" style="dominant-baseline: middle; font-family: inherit; font-size: 10.2px;">providerAccountId</text><rect class="er attributeBoxEven" x="0" y="140" width="37.953125" height="23"></rect><text class="er entityLabel" id="text-entity-Account-3e57c4b6-cd9d-514f-a2f6-ac5478bb332e-attr-6-type" x="0" y="0" transform="translate(5,151.5)" style="dominant-baseline: middle; font-family: inherit; font-size: 10.2px;">string</text><rect class="er attributeBoxEven" x="37.953125" y="140" width="100.8125" height="23"></rect><text class="er entityLabel" id="text-entity-Account-3e57c4b6-cd9d-514f-a2f6-ac5478bb332e-attr-6-name" x="0" y="0" transform="translate(42.953125,151.5)" style="dominant-baseline: middle; font-family: inherit; font-size: 10.2px;">refresh_token</text><rect class="er attributeBoxOdd" x="0" y="163" width="37.953125" height="23"></rect><text class="er entityLabel" id="text-entity-Account-3e57c4b6-cd9d-514f-a2f6-ac5478bb332e-attr-7-type" x="0" y="0" transform="translate(5,174.5)" style="dominant-baseline: middle; font-family: inherit; font-size: 10.2px;">string</text><rect class="er attributeBoxOdd" x="37.953125" y="163" width="100.8125" height="23"></rect><text class="er entityLabel" id="text-entity-Account-3e57c4b6-cd9d-514f-a2f6-ac5478bb332e-attr-7-name" x="0" y="0" transform="translate(42.953125,174.5)" style="dominant-baseline: middle; font-family: inherit; font-size: 10.2px;">access_token</text><rect class="er attributeBoxEven" x="0" y="186" width="37.953125" height="23"></rect><text class="er entityLabel" id="text-entity-Account-3e57c4b6-cd9d-514f-a2f6-ac5478bb332e-attr-8-type" x="0" y="0" transform="translate(5,197.5)" style="dominant-baseline: middle; font-family: inherit; font-size: 10.2px;">int</text><rect class="er attributeBoxEven" x="37.953125" y="186" width="100.8125" height="23"></rect><text class="er entityLabel" id="text-entity-Account-3e57c4b6-cd9d-514f-a2f6-ac5478bb332e-attr-8-name" x="0" y="0" transform="translate(42.953125,197.5)" style="dominant-baseline: middle; font-family: inherit; font-size: 10.2px;">expires_at</text><rect class="er attributeBoxOdd" x="0" y="209" width="37.953125" height="23"></rect><text class="er entityLabel" id="text-entity-Account-3e57c4b6-cd9d-514f-a2f6-ac5478bb332e-attr-9-type" x="0" y="0" transform="translate(5,220.5)" style="dominant-baseline: middle; font-family: inherit; font-size: 10.2px;">string</text><rect class="er attributeBoxOdd" x="37.953125" y="209" width="100.8125" height="23"></rect><text class="er entityLabel" id="text-entity-Account-3e57c4b6-cd9d-514f-a2f6-ac5478bb332e-attr-9-name" x="0" y="0" transform="translate(42.953125,220.5)" style="dominant-baseline: middle; font-family: inherit; font-size: 10.2px;">token_type</text><rect class="er attributeBoxEven" x="0" y="232" width="37.953125" height="23"></rect><text class="er entityLabel" id="text-entity-Account-3e57c4b6-cd9d-514f-a2f6-ac5478bb332e-attr-10-type" x="0" y="0" transform="translate(5,243.5)" style="dominant-baseline: middle; font-family: inherit; font-size: 10.2px;">string</text><rect class="er attributeBoxEven" x="37.953125" y="232" width="100.8125" height="23"></rect><text class="er entityLabel" id="text-entity-Account-3e57c4b6-cd9d-514f-a2f6-ac5478bb332e-attr-10-name" x="0" y="0" transform="translate(42.953125,243.5)" style="dominant-baseline: middle; font-family: inherit; font-size: 10.2px;">scope</text><rect class="er attributeBoxOdd" x="0" y="255" width="37.953125" height="23"></rect><text class="er entityLabel" id="text-entity-Account-3e57c4b6-cd9d-514f-a2f6-ac5478bb332e-attr-11-type" x="0" y="0" transform="translate(5,266.5)" style="dominant-baseline: middle; font-family: inherit; font-size: 10.2px;">string</text><rect class="er attributeBoxOdd" x="37.953125" y="255" width="100.8125" height="23"></rect><text class="er entityLabel" id="text-entity-Account-3e57c4b6-cd9d-514f-a2f6-ac5478bb332e-attr-11-name" x="0" y="0" transform="translate(42.953125,266.5)" style="dominant-baseline: middle; font-family: inherit; font-size: 10.2px;">id_token</text><rect class="er attributeBoxEven" x="0" y="278" width="37.953125" height="23"></rect><text class="er entityLabel" id="text-entity-Account-3e57c4b6-cd9d-514f-a2f6-ac5478bb332e-attr-12-type" x="0" y="0" transform="translate(5,289.5)" style="dominant-baseline: middle; font-family: inherit; font-size: 10.2px;">string</text><rect class="er attributeBoxEven" x="37.953125" y="278" width="100.8125" height="23"></rect><text class="er entityLabel" id="text-entity-Account-3e57c4b6-cd9d-514f-a2f6-ac5478bb332e-attr-12-name" x="0" y="0" transform="translate(42.953125,289.5)" style="dominant-baseline: middle; font-family: inherit; font-size: 10.2px;">session_state</text></g><g id="entity-Session-087c087e-5b46-5a6f-a710-5a009604ebd7" transform="translate(258.765625,352 )"><rect class="er entityBox" x="0" y="0" width="137.6230926513672" height="117"></rect><text class="er entityLabel" id="text-entity-Session-087c087e-5b46-5a6f-a710-5a009604ebd7" x="0" y="0" transform="translate(68.8115463256836,12.5)" style="dominant-baseline: middle; text-anchor: middle; font-family: inherit; font-size: 12px;">Session</text><rect class="er attributeBoxOdd" x="0" y="25" width="63.57621765136719" height="23"></rect><text class="er entityLabel" id="text-entity-Session-087c087e-5b46-5a6f-a710-5a009604ebd7-attr-1-type" x="0" y="0" transform="translate(5,36.5)" style="dominant-baseline: middle; font-family: inherit; font-size: 10.2px;">string</text><rect class="er attributeBoxOdd" x="63.57621765136719" y="25" width="74.046875" height="23"></rect><text class="er entityLabel" id="text-entity-Session-087c087e-5b46-5a6f-a710-5a009604ebd7-attr-1-name" x="0" y="0" transform="translate(68.57621765136719,36.5)" style="dominant-baseline: middle; font-family: inherit; font-size: 10.2px;">id</text><rect class="er attributeBoxEven" x="0" y="48" width="63.57621765136719" height="23"></rect><text class="er entityLabel" id="text-entity-Session-087c087e-5b46-5a6f-a710-5a009604ebd7-attr-2-type" x="0" y="0" transform="translate(5,59.5)" style="dominant-baseline: middle; font-family: inherit; font-size: 10.2px;">timestamp</text><rect class="er attributeBoxEven" x="63.57621765136719" y="48" width="74.046875" height="23"></rect><text class="er entityLabel" id="text-entity-Session-087c087e-5b46-5a6f-a710-5a009604ebd7-attr-2-name" x="0" y="0" transform="translate(68.57621765136719,59.5)" style="dominant-baseline: middle; font-family: inherit; font-size: 10.2px;">expires</text><rect class="er attributeBoxOdd" x="0" y="71" width="63.57621765136719" height="23"></rect><text class="er entityLabel" id="text-entity-Session-087c087e-5b46-5a6f-a710-5a009604ebd7-attr-3-type" x="0" y="0" transform="translate(5,82.5)" style="dominant-baseline: middle; font-family: inherit; font-size: 10.2px;">string</text><rect class="er attributeBoxOdd" x="63.57621765136719" y="71" width="74.046875" height="23"></rect><text class="er entityLabel" id="text-entity-Session-087c087e-5b46-5a6f-a710-5a009604ebd7-attr-3-name" x="0" y="0" transform="translate(68.57621765136719,82.5)" style="dominant-baseline: middle; font-family: inherit; font-size: 10.2px;">sessionToken</text><rect class="er attributeBoxEven" x="0" y="94" width="63.57621765136719" height="23"></rect><text class="er entityLabel" id="text-entity-Session-087c087e-5b46-5a6f-a710-5a009604ebd7-attr-4-type" x="0" y="0" transform="translate(5,105.5)" style="dominant-baseline: middle; font-family: inherit; font-size: 10.2px;">string</text><rect class="er attributeBoxEven" x="63.57621765136719" y="94" width="74.046875" height="23"></rect><text class="er entityLabel" id="text-entity-Session-087c087e-5b46-5a6f-a710-5a009604ebd7-attr-4-name" x="0" y="0" transform="translate(68.57621765136719,105.5)" style="dominant-baseline: middle; font-family: inherit; font-size: 10.2px;">userId</text></g><g id="entity-VerificationToken-962d7f37-815d-52d1-ae4d-eb767410e383" transform="translate(496.3887176513672,363.5 )"><rect class="er entityBox" x="0" y="0" width="129.234375" height="94"></rect><text class="er entityLabel" id="text-entity-VerificationToken-962d7f37-815d-52d1-ae4d-eb767410e383" x="0" y="0" transform="translate(64.6171875,12.5)" style="dominant-baseline: middle; text-anchor: middle; font-family: inherit; font-size: 12px;">VerificationToken</text><rect class="er attributeBoxOdd" x="0" y="25" width="68.97348022460938" height="23"></rect><text class="er entityLabel" id="text-entity-VerificationToken-962d7f37-815d-52d1-ae4d-eb767410e383-attr-1-type" x="0" y="0" transform="translate(5,36.5)" style="dominant-baseline: middle; font-family: inherit; font-size: 10.2px;">string</text><rect class="er attributeBoxOdd" x="68.97348022460938" y="25" width="60.260894775390625" height="23"></rect><text class="er entityLabel" id="text-entity-VerificationToken-962d7f37-815d-52d1-ae4d-eb767410e383-attr-1-name" x="0" y="0" transform="translate(73.97348022460938,36.5)" style="dominant-baseline: middle; font-family: inherit; font-size: 10.2px;">identifier</text><rect class="er attributeBoxEven" x="0" y="48" width="68.97348022460938" height="23"></rect><text class="er entityLabel" id="text-entity-VerificationToken-962d7f37-815d-52d1-ae4d-eb767410e383-attr-2-type" x="0" y="0" transform="translate(5,59.5)" style="dominant-baseline: middle; font-family: inherit; font-size: 10.2px;">string</text><rect class="er attributeBoxEven" x="68.97348022460938" y="48" width="60.260894775390625" height="23"></rect><text class="er entityLabel" id="text-entity-VerificationToken-962d7f37-815d-52d1-ae4d-eb767410e383-attr-2-name" x="0" y="0" transform="translate(73.97348022460938,59.5)" style="dominant-baseline: middle; font-family: inherit; font-size: 10.2px;">token</text><rect class="er attributeBoxOdd" x="0" y="71" width="68.97348022460938" height="23"></rect><text class="er entityLabel" id="text-entity-VerificationToken-962d7f37-815d-52d1-ae4d-eb767410e383-attr-3-type" x="0" y="0" transform="translate(5,82.5)" style="dominant-baseline: middle; font-family: inherit; font-size: 10.2px;">timestamp</text><rect class="er attributeBoxOdd" x="68.97348022460938" y="71" width="60.260894775390625" height="23"></rect><text class="er entityLabel" id="text-entity-VerificationToken-962d7f37-815d-52d1-ae4d-eb767410e383-attr-3-name" x="0" y="0" transform="translate(73.97348022460938,82.5)" style="dominant-baseline: middle; font-family: inherit; font-size: 10.2px;">expires</text></g><rect class="er relationshipLabelBox" x="157.93280029296875" y="177.53651428222656" width="0" height="0"></rect><text class="er relationshipLabel" id="rel1" x="157.93280029296875" y="177.53651428222656" style="text-anchor: middle; dominant-baseline: middle; font-family: inherit; font-size: 12px;"></text><rect class="er relationshipLabelBox" x="327.5769958496094" y="256" width="0" height="0"></rect><text class="er relationshipLabel" id="rel2" x="327.5769958496094" y="256" style="text-anchor: middle; dominant-baseline: middle; font-family: inherit; font-size: 12px;"></text><rect class="er relationshipLabelBox" x="526.8184814453125" y="212.6106414794922" width="0" height="0"></rect><text class="er relationshipLabel" id="rel3" x="526.8184814453125" y="212.6106414794922" style="text-anchor: middle; dominant-baseline: middle; font-family: inherit; font-size: 12px;"></text></svg>