<svg width="18" height="18" viewBox="0 0 18 18" fill="none" xmlns="http://www.w3.org/2000/svg">
<path d="M9.9 3C9.9 2.50294 9.49706 2.1 9 2.1C8.50294 2.1 8.1 2.50294 8.1 3L9.9 3ZM8.3636 16.6364C8.71508 16.9879 9.28492 16.9879 9.6364 16.6364L15.364 10.9088C15.7154 10.5574 15.7154 9.98751 15.364 9.63604C15.0125 9.28457 14.4426 9.28457 14.0912 9.63604L9 14.7272L3.90883 9.63604C3.55736 9.28457 2.98751 9.28457 2.63604 9.63604C2.28457 9.98751 2.28457 10.5574 2.63604 10.9088L8.3636 16.6364ZM8.1 3L8.1 16L9.9 16L9.9 3L8.1 3Z" fill="black"/>
</svg>
